<svg width="24" height="24" viewBox="0 0 24 24" fill="none" xmlns="http://www.w3.org/2000/svg">
<path d="M14.1213 10.8787C15.2929 12.0503 15.2929 13.9497 14.1213 15.1213C12.9497 16.2929 11.0503 16.2929 9.87868 15.1213C8.70711 13.9497 8.70711 12.0503 9.87868 10.8787C11.0503 9.70711 12.9497 9.70711 14.1213 10.8787Z" stroke="currentColor" stroke-width="1.5" stroke-linecap="round" stroke-linejoin="round"/>
<path d="M21 14V17C21 18.6569 19.6569 20 18 20H6C4.34315 20 3 18.6569 3 17V14C3 13.4377 3 11.6347 3 9.99959C3 8.34273 4.34315 7 6 7H7L7.91432 5.12384C8.2494 4.43625 8.94684 4 9.71173 4C10.6376 4 11.7729 4 11.978 4C12.1815 4 13.3282 4 14.2562 4C15.0112 4 15.7015 4.42522 16.0415 5.09939L17 7H18C19.6569 7 21 8.34273 21 9.99958C21 11.6347 21 13.4377 21 14Z" stroke="currentColor" stroke-width="1.5" stroke-linecap="round" stroke-linejoin="round"/>
</svg>
